<?xml version="1.0" encoding="UTF-8" standalone="no"?>
<!DOCTYPE svg PUBLIC "-//W3C//DTD SVG 1.1//EN" "http://www.w3.org/Graphics/SVG/1.1/DTD/svg11.dtd">
<!-- Created with Vectornator (http://vectornator.io/) -->
<svg height="100%" stroke-miterlimit="10" style="fill-rule:nonzero;clip-rule:evenodd;stroke-linecap:round;stroke-linejoin:round;" version="1.1" viewBox="0 0 1024 1024" width="100%" xml:space="preserve" xmlns="http://www.w3.org/2000/svg" xmlns:vectornator="http://vectornator.io" xmlns:xlink="http://www.w3.org/1999/xlink">
<defs>
<filter color-interpolation-filters="sRGB" filterUnits="userSpaceOnUse" height="333.938" id="Filter" width="219.514" x="13.4382" y="308.022">
<feDropShadow dx="-3.67321e-05" dy="10" flood-color="#000000" flood-opacity="0.333" in="SourceGraphic" result="Shadow" stdDeviation="5"/>
</filter>
<filter color-interpolation-filters="sRGB" filterUnits="userSpaceOnUse" height="213.543" id="Filter_2" width="135.284" x="172.168" y="334.027">
<feDropShadow dx="-3.67321e-05" dy="10" flood-color="#000000" flood-opacity="0.333" in="SourceGraphic" result="Shadow" stdDeviation="5"/>
</filter>
<filter color-interpolation-filters="sRGB" filterUnits="userSpaceOnUse" height="117.168" id="Filter_3" width="141.774" x="256.588" y="410.069">
<feDropShadow dx="-3.67321e-05" dy="10" flood-color="#000000" flood-opacity="0.333" in="SourceGraphic" result="Shadow" stdDeviation="5"/>
</filter>
<filter color-interpolation-filters="sRGB" filterUnits="userSpaceOnUse" height="206.512" id="Filter_4" width="120.543" x="369.317" y="325.279">
<feDropShadow dx="-3.67321e-05" dy="10" flood-color="#000000" flood-opacity="0.333" in="SourceGraphic" result="Shadow" stdDeviation="5"/>
</filter>
<filter color-interpolation-filters="sRGB" filterUnits="userSpaceOnUse" height="270.482" id="Filter_5" width="277.705" x="477.622" y="460.466">
<feDropShadow dx="-3.67321e-05" dy="10" flood-color="#000000" flood-opacity="0.333" in="SourceGraphic" result="Shadow" stdDeviation="5"/>
</filter>
<filter color-interpolation-filters="sRGB" filterUnits="userSpaceOnUse" height="91.1792" id="Filter_6" width="101.839" x="688.643" y="619.223">
<feDropShadow dx="-3.67321e-05" dy="10" flood-color="#000000" flood-opacity="0.333" in="SourceGraphic" result="Shadow" stdDeviation="5"/>
</filter>
<filter color-interpolation-filters="sRGB" filterUnits="userSpaceOnUse" height="196.397" id="Filter_7" width="118.616" x="775.496" y="510.819">
<feDropShadow dx="-3.67321e-05" dy="10" flood-color="#000000" flood-opacity="0.333" in="SourceGraphic" result="Shadow" stdDeviation="5"/>
</filter>
<filter color-interpolation-filters="sRGB" filterUnits="userSpaceOnUse" height="151.927" id="Filter_8" width="82.6767" x="849.884" y="562.26">
<feComponentTransfer in="SourceGraphic" result="Alpha">
<feFuncA slope="0" type="linear"/>
</feComponentTransfer>
<feDropShadow dx="-3.67321e-05" dy="10" flood-color="#000000" flood-opacity="0.333" in="Alpha" result="Shadow" stdDeviation="5"/>
</filter>
<filter color-interpolation-filters="sRGB" filterUnits="userSpaceOnUse" height="145.313" id="Filter_9" width="131.793" x="880.608" y="581.266">
<feComponentTransfer in="SourceGraphic" result="Alpha">
<feFuncA slope="0" type="linear"/>
</feComponentTransfer>
<feDropShadow dx="-3.67321e-05" dy="10" flood-color="#000000" flood-opacity="0.333" in="Alpha" result="Shadow" stdDeviation="5"/>
</filter>
<filter color-interpolation-filters="sRGB" filterUnits="userSpaceOnUse" height="40.4899" id="Filter_10" width="39.2316" x="743.676" y="584.718">
<feDropShadow dx="-3.67321e-05" dy="10" flood-color="#000000" flood-opacity="0.333" in="SourceGraphic" result="Shadow" stdDeviation="5"/>
</filter>
<filter color-interpolation-filters="sRGB" filterUnits="userSpaceOnUse" height="99.7773" id="Filter_11" width="78.2781" x="435.662" y="482.565">
<feDropShadow dx="-3.67321e-05" dy="10" flood-color="#000000" flood-opacity="0.333" in="SourceGraphic" result="Shadow" stdDeviation="5"/>
</filter>
<filter color-interpolation-filters="sRGB" filterUnits="userSpaceOnUse" height="70.357" id="Filter_12" width="53.9679" x="482.395" y="507.99">
<feDropShadow dx="-3.67321e-05" dy="10" flood-color="#000000" flood-opacity="0.333" in="SourceGraphic" result="Shadow" stdDeviation="5"/>
</filter>
<filter color-interpolation-filters="sRGB" filterUnits="userSpaceOnUse" height="91.227" id="Filter_13" width="53.6046" x="510.733" y="479.773">
<feDropShadow dx="-3.67321e-05" dy="10" flood-color="#000000" flood-opacity="0.333" in="SourceGraphic" result="Shadow" stdDeviation="5"/>
</filter>
<filter color-interpolation-filters="sRGB" filterUnits="userSpaceOnUse" height="58.5734" id="Filter_14" width="70.1412" x="843.496" y="585.535">
<feDropShadow dx="-3.67321e-05" dy="10" flood-color="#000000" flood-opacity="0.333" in="SourceGraphic" result="Shadow" stdDeviation="5"/>
</filter>
<filter color-interpolation-filters="sRGB" filterUnits="userSpaceOnUse" height="104.727" id="Filter_15" width="70.4381" x="864.877" y="599.923">
<feDropShadow dx="-3.67321e-05" dy="10" flood-color="#000000" flood-opacity="0.333" in="SourceGraphic" result="Shadow" stdDeviation="5"/>
</filter>
<filter color-interpolation-filters="sRGB" filterUnits="userSpaceOnUse" height="108.01" id="Filter_16" width="96.4345" x="889.086" y="598.935">
<feDropShadow dx="-3.67321e-05" dy="10" flood-color="#000000" flood-opacity="0.333" in="SourceGraphic" result="Shadow" stdDeviation="5"/>
</filter>
</defs>
<g id="Book" vectornator:layerName="Book">
<g opacity="1">
<path d="M175.562 515.062C172.369 514.973 169.715 517.494 169.625 520.688C168.826 549.755 167.786 578.801 167.25 607.875C166.925 625.481 166.872 643.079 166.875 660.688C166.879 686.957 166.81 713.26 168.844 739.469C169.077 742.484 171.735 744.733 174.75 744.5C177.765 744.267 180.014 741.64 179.781 738.625C177.738 712.096 177.889 685.494 178 658.906C178.056 645.603 178.15 632.302 178.406 619C179.036 586.329 180.251 553.663 181.188 521C181.277 517.807 178.756 515.152 175.562 515.062ZM180.656 242.469C177.462 242.414 174.836 244.962 174.781 248.156C174.703 255.157 174.28 262.138 173.844 269.125C173.646 272.143 175.951 274.771 178.969 274.969C181.987 275.166 184.584 272.862 184.781 269.844C185.105 265.109 185.665 260.418 186.031 255.688C186.22 253.251 186.287 250.817 186.344 248.375C186.399 245.181 183.85 242.524 180.656 242.469Z" fill="#1f1209" stroke="none"/>
</g>
<g opacity="1">
<path d="M189.812 244.062C188.475 243.943 187.111 243.97 185.781 244.156C183.905 244.419 182.114 245.052 180.25 245.375C177.271 245.895 175.262 248.708 175.781 251.688C176.301 254.667 179.146 256.676 182.125 256.156C183.38 255.936 184.607 255.644 185.844 255.344C186.576 255.166 187.336 254.957 188.094 254.938C190.233 254.882 192.863 256.17 194.781 256.938C196.711 257.709 198.638 258.418 200.625 259.031C206.815 260.941 213.139 262.397 219.219 264.656C221.99 265.686 224.571 267.178 227.312 268.281C230.496 269.563 233.822 270.164 237.188 270.75C247.731 272.586 258.388 273.793 268.938 275.594C276.987 276.968 284.908 278.956 293 280.094C297.742 280.761 302.539 281.111 307.312 281.469C316.334 282.145 325.38 282.606 334.375 283.594C350.35 285.349 366.113 288.646 381.938 291.375C396.364 293.863 410.779 296.549 425.281 298.562C428.32 298.984 431.41 299.451 434.469 299.688C436.601 299.853 438.951 299.602 441.031 300.156C441.191 300.199 441.346 300.251 441.5 300.312C442.233 301.447 443.049 302.591 443.875 303.656C445.841 306.174 449.451 306.622 451.969 304.656C454.487 302.691 454.934 299.049 452.969 296.531C451.248 294.349 450.029 291.857 447.531 290.406C444.008 288.36 439.959 288.38 436.031 288.188C432.98 288.038 429.9 287.574 426.875 287.156C413.725 285.339 400.648 282.909 387.562 280.688C370.275 277.752 353.045 274.16 335.594 272.312C326.465 271.346 317.279 270.899 308.125 270.25C303.593 269.928 299.066 269.615 294.562 269C286.576 267.909 278.728 265.981 270.781 264.656C260.241 262.899 249.594 261.721 239.062 259.906C237.074 259.564 235.028 259.282 233.094 258.688C230.829 257.991 228.705 256.835 226.562 255.844C224.835 255.045 223.076 254.354 221.281 253.719C215.042 251.51 208.55 250.169 202.281 248.062C198.173 246.682 194.204 244.456 189.812 244.062Z" fill="#1f1209" stroke="none"/>
</g>
<g opacity="1">
<path d="M551.812 279.781C542.749 279.547 533.641 280.375 524.594 280.875C501.568 282.147 477.704 284.058 457.062 295.281C454.405 296.725 453.4 300.03 454.844 302.688C456.288 305.345 459.624 306.35 462.281 304.906C481.865 294.271 504.797 293.049 526.594 292.031C537.516 291.521 548.537 290.408 559.438 291.812C567.858 292.897 576.032 295.136 584.312 296.938C586.794 297.477 589.311 298.029 591.812 298.469C594.298 298.906 596.815 299.195 599.312 299.562C602.473 300.024 605.413 297.848 605.875 294.688C606.337 291.527 604.161 288.587 601 288.125C598.61 287.778 596.192 287.508 593.812 287.094C591.462 286.685 589.113 286.159 586.781 285.656C578.164 283.798 569.611 281.484 560.844 280.406C557.831 280.036 554.834 279.859 551.812 279.781Z" fill="#1f1209" stroke="none"/>
</g>
<g opacity="1">
<path d="M854.094 213.219C853.355 213.082 852.561 213.109 851.781 213.281C843.101 215.201 834.416 217.071 825.781 219.188C820.532 220.475 815.253 221.789 810.094 223.406C806.491 224.536 803.221 226.401 799.75 227.844C798.193 228.491 796.586 228.968 794.969 229.438C789.827 230.929 784.57 231.973 779.438 233.5C775.888 234.556 772.369 235.739 768.844 236.875C763.26 238.675 757.659 240.488 752.094 242.344C746.844 244.094 741.618 245.892 736.406 247.75C734.424 248.456 732.426 249.102 730.469 249.875C728.171 250.782 725.936 251.816 723.75 252.969C718.409 255.786 713.388 259.153 707.719 261.312C699.748 264.348 691.289 265.824 683.25 268.656C667.166 274.324 651.83 281.864 636.062 288.312C633.659 289.295 631.257 290.249 628.812 291.125C623.368 293.077 617.836 294.704 612.469 296.875C609.665 298.009 608.304 301.196 609.438 304C610.571 306.804 613.759 308.165 616.562 307.031C621.792 304.917 627.193 303.337 632.5 301.438C635.096 300.508 637.666 299.48 640.219 298.438C655.813 292.069 670.983 284.642 686.906 279.094C695.043 276.258 703.58 274.786 711.656 271.75C714.561 270.658 717.363 269.347 720.094 267.875C724.893 265.288 729.499 262.367 734.594 260.375C736.751 259.531 738.971 258.8 741.156 258.031C746.306 256.221 751.47 254.517 756.656 252.812C761.868 251.099 767.086 249.417 772.312 247.75C775.759 246.651 779.217 245.521 782.688 244.5C787.802 242.995 793.035 241.949 798.156 240.469C800.579 239.768 802.973 239.019 805.281 238C808.026 236.789 810.657 235.301 813.531 234.406C818.463 232.872 823.515 231.599 828.531 230.375C837.083 228.288 845.685 226.455 854.281 224.562C857.401 223.874 859.376 220.776 858.688 217.656C858.171 215.317 856.31 213.629 854.094 213.219Z" fill="#1f1209" stroke="none"/>
</g>
<g opacity="1">
<path d="M861.219 222.812C858.197 222.94 855.841 225.478 855.969 228.5C857.036 253.951 859.093 279.348 860.469 304.781C861.779 329.003 861.917 353.27 862.969 377.5C864.013 401.553 865.867 425.566 866.812 449.625C868.272 486.74 868.913 523.863 869.469 561C869.518 564.194 872.15 566.768 875.344 566.719C878.538 566.67 881.08 564.038 881.031 560.844C880.445 523.611 879.802 486.364 878.25 449.156C877.246 425.082 875.311 401.068 874.188 377C873.055 352.739 872.816 328.441 871.469 304.188C870.059 278.802 867.982 253.468 866.906 228.062C866.779 225.041 864.241 222.685 861.219 222.812ZM876.75 703.844C873.726 703.852 871.273 706.319 871.281 709.344C871.316 730.748 871.137 752.127 871.156 773.531C871.166 776.726 873.774 779.322 876.969 779.312C880.163 779.303 882.728 776.695 882.719 773.5C882.614 752.097 882.327 730.715 882.25 709.312C882.242 706.288 879.774 703.836 876.75 703.844Z" fill="#1f1209" stroke="none"/>
</g>
<g opacity="1">
<path d="M378.812 697.656C378.062 697.696 377.312 697.901 376.594 698.25C367.843 702.512 358.88 706.198 349.656 709.312C340.561 712.383 331.276 714.823 322.062 717.5C309.88 721.04 297.805 725.037 285.438 727.906C279.723 729.232 273.885 729.911 268.188 731.312C257.827 733.861 247.724 737.426 237.344 739.906C232.361 741.097 227.296 741.771 222.25 742.625C219.385 743.11 216.551 743.695 213.719 744.344C202.725 746.863 191.837 749.855 180.594 751.062C177.587 751.385 175.428 754.087 175.75 757.094C176.072 760.101 178.774 762.291 181.781 761.969C193.459 760.72 204.733 757.651 216.156 755.062C224.017 753.281 232.063 752.509 239.906 750.656C250.311 748.198 260.452 744.718 270.844 742.219C276.498 740.859 282.297 740.19 287.969 738.906C300.559 736.057 312.85 732.082 325.25 728.531C334.637 725.843 344.083 723.363 353.344 720.25C363.037 716.991 372.458 713.121 381.656 708.656C384.529 707.259 385.709 703.779 384.312 700.906C383.265 698.752 381.063 697.538 378.812 697.656Z" fill="#1f1209" stroke="none"/>
</g>
<g opacity="1">
<path d="M388.219 701.156C386.113 701.503 384.314 703.076 383.781 705.281C383.071 708.221 384.873 711.164 387.812 711.875C398.265 714.403 408.056 718.725 417.938 722.875C421.621 724.422 425.341 725.943 429.094 727.312C430.613 727.867 432.09 728.408 433.656 728.812C436.883 729.646 440.206 729.986 443.5 730.438C445.38 730.695 447.248 731.007 449.125 731.281C465.432 733.661 481.89 734.273 498.344 734.688C507.984 734.93 517.542 736.753 527.188 736.812C539.958 736.892 552.378 733.956 564.688 730.906C570.09 729.568 575.702 728.933 580.938 726.969C585.008 725.441 588.703 723.011 592.625 721.156C595.512 719.789 596.743 716.356 595.375 713.469C594.007 710.582 590.574 709.351 587.688 710.719C585.699 711.662 583.749 712.673 581.812 713.719C580.215 714.581 578.613 715.491 576.906 716.125C572.099 717.91 566.899 718.454 561.938 719.688C550.569 722.514 539.05 725.401 527.25 725.375C521.897 725.363 516.539 724.674 511.219 724.156C507.026 723.748 502.837 723.459 498.625 723.375C482.616 723.055 466.564 722.544 450.688 720.312C448.381 719.988 446.092 719.636 443.781 719.344C441.313 719.032 438.822 718.739 436.406 718.125C433.974 717.507 431.616 716.531 429.281 715.625C425.703 714.236 422.161 712.742 418.625 711.25C409.391 707.353 400.172 703.609 390.406 701.25C389.671 701.072 388.921 701.041 388.219 701.156Z" fill="#1f1209" stroke="none"/>
</g>
<g opacity="1">
<path d="M608.25 711.094C607.462 711.065 606.663 711.153 605.844 711.375C604.452 711.752 603.216 712.552 602.125 713.469C601.464 714.024 600.875 714.676 600.156 715.156C597.665 716.872 597.035 720.29 598.75 722.781C600.465 725.272 603.884 725.903 606.375 724.188C606.94 723.794 607.456 723.354 607.969 722.906C608.434 723.411 608.913 723.965 609.312 724.312C611.423 726.149 614.016 727.197 616.594 728.188C618.165 728.791 619.731 729.363 621.312 729.938C634.381 734.685 647.923 738.089 661.625 740.406C678.772 743.306 696.072 745.307 713.062 749.094C728.192 752.465 743.007 757.126 758 761.031C764.906 762.83 771.85 764.451 778.844 765.875C795.523 769.271 812.476 771.089 829.125 774.656C837.218 776.39 845.162 778.593 852.969 781.344C855.982 782.404 859.283 780.795 860.344 777.781C861.404 774.768 859.826 771.467 856.812 770.406C846.487 766.779 835.934 764.14 825.188 762.094C810.553 759.307 795.733 757.582 781.125 754.656C774.329 753.295 767.556 751.695 760.844 749.969C745.708 746.076 730.745 741.494 715.469 738.156C697.025 734.127 678.241 732.263 659.688 728.875C647.924 726.727 636.31 723.736 625.062 719.656C623.24 718.995 621.397 718.306 619.594 717.594C618.699 717.24 617.755 716.894 616.938 716.375C616.007 715.784 615.355 714.755 614.562 714C612.79 712.31 610.613 711.18 608.25 711.094Z" fill="#1f1209" stroke="none"/>
</g>
<g opacity="1">
<path d="M781.125 197.531C776.492 197.619 771.913 197.989 767.344 198.781C754.8 200.955 742.818 205.494 730.906 209.844C723.312 212.617 715.652 215.142 707.969 217.656C686.669 224.628 665.424 231.749 644.062 238.531C634.532 241.557 624.781 243.902 615.312 247.125C607.411 249.814 599.864 253.355 592.156 256.531C586.498 258.863 580.684 260.864 574.906 262.875C570.498 264.409 566.104 265.999 561.625 267.312C555.426 269.13 549.071 270.542 543.188 273.281C539.93 274.798 536.942 276.729 534.188 279.031C531.868 280.972 531.559 284.431 533.5 286.75C535.441 289.069 538.899 289.379 541.219 287.438C548.313 281.489 557.465 280.078 566.062 277.438C570.567 276.054 575.016 274.478 579.469 272.938C585.478 270.858 591.502 268.723 597.375 266.281C604.508 263.316 611.512 260.086 618.844 257.625C628.253 254.467 637.936 252.212 647.406 249.25C668.831 242.549 690.144 235.479 711.5 228.562C720.159 225.758 728.791 222.897 737.344 219.781C748.529 215.706 759.841 211.454 771.688 209.781C774.888 209.329 778.114 209.152 781.344 209.094C784.538 209.035 787.059 206.381 787 203.188C786.941 199.994 784.319 197.472 781.125 197.531Z" fill="#1f1209" stroke="none"/>
</g>
<g opacity="1">
<path d="M776.344 212.625C751.01 217.688 725.638 222.596 700.469 228.438C686.611 231.654 672.766 235.109 659.125 239.156C644.848 243.392 630.657 248.014 616.656 253.094C606.823 256.662 597.078 260.531 587 263.375C582.201 264.729 577.326 265.787 572.406 266.594C569.422 267.082 567.418 269.89 567.906 272.875C568.395 275.86 571.203 277.895 574.188 277.406C580.258 276.415 586.227 275.03 592.125 273.281C602.048 270.34 611.689 266.517 621.438 263.062C634.926 258.283 648.542 253.876 662.281 249.875C675.728 245.959 689.38 242.676 703.031 239.562C728.111 233.842 753.365 228.979 778.594 223.969C781.727 223.345 783.78 220.289 783.156 217.156C782.532 214.023 779.477 212.001 776.344 212.625Z" fill="#1f1209" stroke="none"/>
</g>
<g opacity="1">
<path d="M782.75 218.188C782.008 218.072 781.212 218.118 780.438 218.312C746.036 226.967 711.694 235.918 678 247.062C644.613 258.105 611.907 271.166 579.344 284.406C576.542 285.545 575.205 288.729 576.344 291.531C577.482 294.333 580.667 295.67 583.469 294.531C615.809 281.405 648.292 268.575 681.5 257.781C714.987 246.896 749.106 238.077 783.25 229.531C786.348 228.754 788.246 225.598 787.469 222.5C786.886 220.176 784.977 218.534 782.75 218.188Z" fill="#1f1209" stroke="none"/>
</g>
<g opacity="1">
<path d="M825.75 213.219C815.373 215.125 804.833 216.194 794.625 218.938C790.64 220.009 786.724 221.412 782.812 222.719C775.916 225.022 769.067 227.505 762.25 230.031C742.235 237.447 722.49 245.537 702.844 253.875C694.326 257.49 685.843 261.154 677.344 264.812C657.566 273.325 637.913 282.107 618.844 292.125C616.166 293.531 615.125 296.822 616.531 299.5C617.937 302.178 621.26 303.218 623.938 301.812C651.245 287.486 679.763 275.649 708.188 263.75C727.38 255.716 746.68 247.94 766.219 240.781C773.272 238.197 780.372 235.684 787.5 233.312C790.853 232.197 794.178 231.007 797.594 230.094C807.498 227.445 817.776 226.431 827.844 224.594C830.986 224.018 833.075 221.017 832.5 217.875C831.925 214.733 828.892 212.643 825.75 213.219Z" fill="#1f1209" stroke="none"/>
</g>
<g opacity="1">
<path d="M212.438 209.375C209.243 209.359 206.641 211.962 206.625 215.156C206.609 218.351 209.181 220.953 212.375 220.969C240.702 221.099 269.061 224.087 296.531 231.156C301.944 232.549 307.343 234.138 312.656 235.875C326.176 240.295 339.344 245.725 353.094 249.438C356.831 250.447 360.604 251.283 364.375 252.156C372.041 253.931 379.761 255.512 387.469 257.094C401.514 259.977 415.547 262.875 429.594 265.75C447.646 269.445 465.762 272.973 483.688 277.25C486.641 277.955 489.623 278.626 492.531 279.5C494.354 280.048 496.14 280.721 497.969 281.25C499.528 281.701 501.042 281.997 502.656 282.156C503.197 282.21 503.771 282.249 504.312 282.312C504.558 282.342 504.701 282.357 504.938 282.406C505.004 282.42 505.06 282.452 505.125 282.469C505.141 282.473 505.167 282.458 505.188 282.469C505.452 282.618 505.716 282.739 505.969 282.906C506.532 283.279 507.167 283.875 507.656 284.312C508.804 285.34 509.885 286.41 511.062 287.406C513.373 289.358 516.829 289.06 518.781 286.75C520.733 284.44 520.466 280.983 518.156 279.031C515.586 276.862 513.362 274.39 510.344 272.781C508.878 272 507.261 271.639 505.625 271.438C504.467 271.295 503.263 271.307 502.125 271.031C499.94 270.502 497.838 269.646 495.688 269C492.577 268.065 489.408 267.349 486.25 266.594C468.665 262.39 450.892 258.874 433.188 255.219C418.695 252.227 404.235 249.182 389.75 246.156C381.775 244.49 373.775 242.803 365.844 240.938C362.571 240.168 359.306 239.419 356.062 238.531C345.592 235.665 335.444 231.769 325.219 228.156C316.712 225.15 308.142 222.335 299.406 220.062C271.038 212.684 241.708 209.534 212.438 209.375Z" fill="#1f1209" stroke="none"/>
</g>
<g opacity="1">
<path d="M206.312 226.875C204.066 227.064 202.027 228.567 201.281 230.844C200.288 233.88 201.964 237.163 205 238.156C216.534 241.925 228.164 245.28 239.938 248.219C261.473 253.594 283.272 257.78 305.031 262.125C327.769 266.666 350.521 271.343 373.531 274.312C387.093 276.063 400.712 277.068 414.375 277.531C426.991 277.959 439.604 278.061 452.219 278.531C454.281 278.608 456.385 278.612 458.438 278.844C461.852 279.229 465.193 280.124 468.656 279.969C472.728 279.786 476.667 278.74 480.656 278C483.63 277.449 485.583 274.599 485.031 271.625C484.48 268.651 481.63 266.667 478.656 267.219C475.173 267.864 471.708 268.832 468.156 269C465.328 269.134 462.439 268.25 459.656 267.938C456.935 267.632 454.173 267.624 451.438 267.531C438.818 267.104 426.181 266.95 413.562 266.5C400.649 266.039 387.779 264.954 374.969 263.25C352.222 260.224 329.757 255.494 307.281 250.938C284.261 246.271 261.185 241.797 238.438 235.906C228.392 233.305 218.454 230.388 208.594 227.156C207.835 226.908 207.061 226.812 206.312 226.875Z" fill="#1f1209" stroke="none"/>
</g>
<g opacity="1">
<path d="M470.156 284.031C468.042 284.323 466.215 285.872 465.625 288.062C464.838 290.983 466.548 293.963 469.469 294.75C473.946 296.114 475.277 296.495 473.969 296.125C472.801 295.794 471.615 295.431 470.469 295.031C470.117 294.909 471.199 295.198 471.562 295.281C471.902 295.359 472.254 295.456 472.594 295.531C473.934 295.826 475.298 296.102 476.594 296.562C476.781 296.629 477.361 296.874 477.562 296.969C477.678 297.023 478.031 297.154 477.906 297.125C476.581 296.82 477.912 297.148 478.438 297.5C481.14 299.203 484.703 298.39 486.406 295.688C488.11 292.985 487.296 289.391 484.594 287.688C483.082 286.765 481.56 286.055 479.844 285.594C477.375 284.931 474.784 284.84 472.312 284.188C471.582 283.991 470.861 283.934 470.156 284.031Z" fill="#1f1209" stroke="none"/>
</g>
<g opacity="1">
<path d="M206 244.375C202.816 244.121 200.035 246.503 199.781 249.688C199.527 252.872 201.878 255.652 205.062 255.906C212.047 256.46 219.028 257.03 226 257.719C238.258 258.929 250.495 260.362 262.75 261.594C281.978 263.526 301.258 265.043 320.438 267.438C335.266 269.289 349.973 271.887 364.688 274.469C381.419 277.404 398.119 280.458 414.688 284.219C419.526 285.317 424.353 286.477 429.156 287.719C431.849 288.415 434.579 289.052 437.188 290.031C444.413 292.743 450.913 297.454 457.656 301.156C460.307 302.612 463.638 301.62 465.094 298.969C466.55 296.318 465.588 292.987 462.938 291.531C455.692 287.549 448.846 282.672 441.062 279.75C437.506 278.414 433.738 277.562 430.062 276.625C425.146 275.371 420.23 274.212 415.281 273.094C399.157 269.451 382.892 266.424 366.625 263.5C351.739 260.824 336.88 258.155 321.875 256.219C302.609 253.732 283.229 252.086 263.906 250.125C251.646 248.881 239.419 247.442 227.156 246.219C220.11 245.516 213.058 244.941 206 244.375Z" fill="#1f1209" stroke="none"/>
</g>
</g>
<g id="Txt" vectornator:layerName="Txt">
<g filter="url(#Filter)" vectornator:shadowAngle="1.5708" vectornator:shadowColor="#000000" vectornator:shadowOffset="10" vectornator:shadowOpacity="0.333" vectornator:shadowRadius="10">
<path d="M185.344 311.656C181.714 311.943 178.082 312.965 174.781 314.156C165.386 317.547 156.954 323.034 148.625 328.438C145.653 330.366 142.665 332.236 139.688 334.156C133.956 337.853 128.51 341.893 123.5 346.531C116.172 353.316 109.779 360.994 103.219 368.5C99.049 373.271 94.44 377.659 90.5312 382.656C86.4208 387.911 83.6358 393.93 79.9688 399.469C75.1291 406.779 69.6565 413.675 65.4688 421.406C61.6573 428.443 58.7647 435.989 55.5625 443.312C53.4858 448.062 51.7554 452.944 50.5938 458C50.1667 459.859 49.9784 461.744 49.6875 463.625C46.8203 464.534 43.8919 465.276 40.9062 465.188C36.7985 465.065 32.9028 463.729 29.2188 462C32.888 463.8 36.784 465.212 40.9062 465.406C43.8514 465.545 46.7457 464.837 49.5938 464C48.9191 468.499 48.4928 473.044 48.4062 477.594C48.3594 480.058 47.9838 482.573 48.1875 485.031C48.3148 486.568 48.6971 488.084 49.2188 489.531C51.3922 495.56 56.0875 500.322 60.6875 504.594C64.6019 508.228 69.6525 510.301 74.8125 511.562C72.4922 514.108 70.1762 516.68 68.2188 519.531C65.5945 523.354 63.5476 527.509 61.0938 531.438C58.5737 535.472 55.7757 539.345 53.25 543.375C51.0908 546.821 49.1593 550.394 47.4062 554.062C40.3926 568.738 36.5154 584.814 36.375 601.094C36.3309 606.203 36.7143 611.278 37.3438 616.344C37.4434 617.158 38.1861 617.756 39 617.656C39.8139 617.557 40.4122 616.814 40.3125 616C39.1236 606.147 39.0817 596.285 40.6562 586.469C42.6858 573.816 47.1849 561.567 53.6875 550.531C56.8427 545.176 60.6614 540.309 64.25 535.25C67.3737 530.846 69.8762 525.997 73.3438 521.844C76.0222 518.636 79.1338 515.813 82.0625 512.844C89.6756 513.785 97.6719 513.611 105.125 512.312C118.884 509.916 130.836 502.822 142.875 496.156C146.032 494.408 149.338 492.958 152.531 491.281C155.247 489.856 157.893 488.27 160.5 486.656C173.095 478.86 184.75 469.551 195.75 459.656C197.648 457.949 199.543 456.248 201.344 454.438C206.55 449.203 211.216 443.438 215.375 437.344C216.866 435.159 218.405 432.974 219.688 430.656C222.552 425.478 224.407 419.403 221.156 413.969C217.88 408.491 211.3 405.665 205.094 405.781C201.162 405.855 197.334 406.937 193.656 408.25C186.54 410.79 179.549 413.573 172.969 417.312C162.883 423.044 153.876 430.401 144.844 437.625C141.121 440.602 137.04 443.224 133.625 446.562C131.814 448.333 130.296 450.355 128.625 452.25C127.396 453.644 126.081 454.954 124.75 456.25C119.518 461.346 113.969 466.104 108.906 471.375C107.537 472.801 106.57 474.503 105.375 476.062C104.474 477.238 103.388 478.299 102.375 479.375C97.6522 484.389 92.6267 489.138 88.25 494.469C85.8171 497.432 83.6141 500.57 81.3438 503.656C80.2035 503.505 79.0644 503.415 77.9375 503.188C73.9211 502.377 69.6414 501.056 66.5312 498.25C62.9092 494.982 58.8502 491.312 57.0625 486.625C56.2482 484.49 56.4834 482.71 56.5625 480.469C56.6297 478.565 56.5748 476.655 56.625 474.75C56.7446 470.213 57.2904 465.705 58.125 461.25C60.6718 460.36 63.199 459.433 65.5938 458.188C70.6533 455.555 75.268 452.182 80.1875 449.312C90.5571 443.264 101.483 438.209 111.656 431.812C118.097 427.763 123.976 422.873 130.125 418.406C148.738 404.886 166.58 389.788 180.844 371.625C183.342 368.444 185.747 365.201 188.094 361.906C189.83 359.469 191.538 356.997 193.188 354.5C194.626 352.321 195.962 350.084 197.25 347.812C198.867 344.961 200.486 342.042 201.719 339C205.124 330.595 204.998 318.211 195.875 313.5C192.593 311.805 188.974 311.37 185.344 311.656ZM185.688 316.062C188.538 315.782 191.372 316.047 193.938 317.312C200.302 320.451 200.517 328.993 199 335C198.406 337.351 197.369 339.515 196.312 341.688C195.062 344.259 193.691 346.78 192.25 349.25C189.363 354.197 186.125 358.926 182.812 363.594C180.462 366.905 178.074 370.176 175.531 373.344C161.836 390.407 145.074 404.57 127.719 417.75C122.103 422.015 116.724 426.639 110.812 430.5C100.769 437.059 89.9324 442.284 79.6875 448.5C74.8261 451.45 70.2863 454.878 65.2812 457.594C63.0278 458.816 60.6517 459.763 58.25 460.656C58.5716 459.016 58.8061 457.366 59.25 455.75C60.4568 451.356 62.1946 447.199 63.9375 443C66.7456 436.234 69.3193 429.281 72.9062 422.875C76.7352 416.037 81.4447 409.781 85.6562 403.188C89.1374 397.737 91.7429 391.772 95.6562 386.594C99.4089 381.628 103.863 377.249 107.875 372.5C114.541 364.609 121.014 356.521 128.594 349.469C133.313 345.078 138.484 341.312 143.844 337.75C146.595 335.922 149.362 334.108 152.094 332.25C160.072 326.823 168.292 321.358 177.438 318.094C179.988 317.183 182.837 316.343 185.688 316.062ZM205.969 417.344C207.378 417.402 208.733 417.774 209.969 418.625C210.494 418.986 211.072 419.422 211.375 420C211.647 420.519 211.151 421.948 210.938 422.5C209.965 425.019 208.514 427.258 207.031 429.5C203.354 435.061 199.381 440.417 194.844 445.312C191.806 448.591 188.469 451.568 185.156 454.562C175.192 463.569 164.63 472.015 153.219 479.125C151.431 480.239 149.6 481.335 147.75 482.344C144.517 484.106 141.195 485.634 138 487.469C127.025 493.769 116.06 500.681 103.438 503.094C99.4772 503.851 95.4345 504.209 91.4062 504.281C90.7936 504.292 90.1763 504.221 89.5625 504.219C90.929 502.536 92.3067 500.871 93.7812 499.281C98.7965 493.874 104.576 489.211 109.875 484.094C111.006 483.002 112.06 481.921 113.031 480.688C113.779 479.737 114.451 478.701 115.344 477.875C121.192 472.461 127.502 467.577 133.344 462.156C137.002 458.761 139.94 454.829 143.969 451.844C147.371 449.323 150.822 446.884 154.188 444.312C162.072 438.288 169.909 432.136 178.594 427.281C183.27 424.667 188.15 422.659 193.156 420.781C194.334 420.339 195.508 419.875 196.688 419.438C197.534 419.124 198.39 418.837 199.25 418.562C200.065 418.302 200.886 418.073 201.719 417.875C203.112 417.543 204.56 417.286 205.969 417.344Z" fill="#1f1209" stroke="none"/>
</g>
<g filter="url(#Filter_2)" vectornator:shadowAngle="1.5708" vectornator:shadowColor="#000000" vectornator:shadowOffset="10" vectornator:shadowOpacity="0.333" vectornator:shadowRadius="10">
<path d="M287.5 336.062C285.348 335.903 283.153 336.641 281.125 337.375C279.957 337.798 278.835 338.232 277.719 338.781C276.83 339.219 275.842 339.79 275 340.312C263.768 347.286 257.962 359.545 251.375 370.469C249.452 373.657 247.677 376.893 246.125 380.281C241.981 389.326 239.126 398.897 235.969 408.312C232.055 419.984 228.375 431.767 225.781 443.812C223.965 452.249 222.703 460.825 222.094 469.438C221.758 469.758 221.43 470.087 221.094 470.406C217.884 473.456 214.698 476.574 211.375 479.5C204.073 485.931 195.787 491.115 187.969 496.875C196.029 491.402 204.525 486.51 212.094 480.344C215.455 477.605 218.692 474.693 221.938 471.812C221.799 474.298 221.673 476.791 221.656 479.281C221.611 485.933 221.798 492.713 222.906 499.281C223.623 503.528 224.735 507.724 226.594 511.625C227.766 514.085 229.229 516.315 230.969 518.406C232.051 519.707 233.394 520.856 234.781 521.812C236.118 522.734 237.568 523.47 239.125 523.938C244.939 525.684 249.855 519.648 252.875 515.594C253.368 514.931 253.839 514.248 254.344 513.594C256.308 511.045 258.407 508.59 260.438 506.094C264.024 501.683 267.549 497.213 271.031 492.719C271.536 492.073 271.396 491.161 270.75 490.656C270.104 490.151 269.192 490.26 268.688 490.906C265.19 495.348 261.626 499.715 257.938 504C255.827 506.452 253.62 508.838 251.5 511.281C249.303 513.813 247.173 516.763 244.188 518.438C243.475 518.837 242.443 519.395 241.594 519.312C240.298 519.186 239.14 518.242 238.219 517.406C237.467 516.724 236.757 515.945 236.156 515.125C235.306 513.966 234.633 512.659 234.062 511.344C233.203 509.362 232.641 507.278 232.25 505.156C231.581 501.531 231.449 497.804 231.5 494.125C231.58 488.274 232.026 482.39 232.531 476.562C233.012 471.022 233.692 465.531 234.562 460.062C236.241 458.393 237.939 456.751 239.531 455C245.339 448.615 250.343 441.585 255.594 434.75C259.401 429.795 263.6 425.11 267.031 419.875C270.775 414.163 273.11 407.583 275.875 401.375C278.204 396.148 281.015 391.225 283.656 386.156C285.393 382.823 286.956 379.411 288.312 375.906C289.864 371.895 291.379 367.744 292.406 363.562C292.986 361.202 293.018 358.777 293.531 356.406C294.31 352.805 295.534 349.047 295.188 345.344C295.119 344.615 294.881 343.803 294.688 343.094C293.926 340.305 292.434 337.692 289.625 336.562C288.92 336.279 288.217 336.116 287.5 336.062ZM286.938 343.594C287.061 343.725 287.201 343.931 287.25 344.031C287.565 344.677 287.714 345.355 287.938 346.031C288.287 347.086 287.971 348.325 287.812 349.406C287.552 351.185 287.199 352.951 286.875 354.719C286.4 357.311 286.55 360.004 285.906 362.562C284.368 368.673 282.478 374.775 279.969 380.562C278.607 383.704 277.038 386.74 275.531 389.812C273.226 394.513 271.258 399.337 269.375 404.219C267.626 408.754 265.954 413.414 263.438 417.594C260.264 422.865 256.302 427.615 252.75 432.625C247.809 439.594 243.133 446.799 237.625 453.344C236.908 454.196 236.114 454.979 235.375 455.812C238.098 440.337 242.07 425.078 246.594 410C250.019 398.583 252.918 386.881 258.719 376.375C261.088 372.084 263.317 367.711 265.719 363.438C268.827 357.906 272.353 352.43 277.344 348.406C279.506 346.663 281.841 345.378 284.406 344.344C285.223 344.015 286.058 343.684 286.938 343.594Z" fill="#1f1209" stroke="none"/>
</g>
<g filter="url(#Filter_3)" vectornator:shadowAngle="1.5708" vectornator:shadowColor="#000000" vectornator:shadowOffset="10" vectornator:shadowOpacity="0.333" vectornator:shadowRadius="10">
<path d="M355.656 411C353.835 411.178 352.176 412.294 350.938 413.719C349.489 415.385 348.751 417.385 347.656 419.25C347.171 420.076 346.525 420.809 345.938 421.562C344.004 424.042 342.228 426.656 340.406 429.219C338.145 432.4 335.91 435.599 334.094 439.062C333.354 440.472 332.717 441.895 332.219 443.406C331.842 444.552 331.569 445.731 331.094 446.844C330.511 448.208 329.74 449.542 329.031 450.844C327.437 453.771 325.731 456.64 323.969 459.469C321.142 464.006 318.142 468.423 315.094 472.812C311.493 477.998 307.786 483.104 303.719 487.938C301.429 490.658 299.043 493.405 296.219 495.594C295.368 496.253 294.47 496.843 293.469 497.25C293.307 497.316 292.615 497.38 292.375 497.406C292.367 497.355 292.35 497.302 292.344 497.25C292.299 496.876 292.295 496.501 292.281 496.125C292.25 495.27 292.191 494.447 292.125 493.594C291.961 491.469 291.998 489.343 292.156 487.219C292.645 480.661 293.682 474.061 295.438 467.719C299.198 454.131 305.005 441.218 310.312 428.188C310.711 427.209 311.109 426.223 311.438 425.219C311.79 424.143 312.048 423.068 312.312 421.969C312.832 419.81 314.773 416.31 312.062 414.75C311.489 414.42 310.822 414.318 310.188 414.531C308.235 415.188 308.101 417.802 307.156 419.312C306.554 420.276 305.916 421.225 305.312 422.188C304.705 423.156 304.094 424.117 303.5 425.094C302.906 426.07 302.331 427.047 301.75 428.031C297.417 435.378 294.108 443.31 289.562 450.531C284.298 458.895 277.673 466.283 272.375 474.625C277.785 466.834 284.326 459.928 289.844 452.219C293.202 447.527 295.917 442.423 298.75 437.406C301.989 431.67 305.683 426.262 309.375 420.812C308.912 422.225 308.529 423.646 307.969 425.031C307.084 427.217 305.983 429.327 305 431.469C303.396 434.964 301.844 438.469 300.25 441.969C296.488 450.229 292.82 458.56 290.156 467.25C288.492 472.681 287.467 478.239 286.594 483.844C286.135 486.787 285.79 489.767 285.812 492.75C285.819 493.648 285.914 494.54 285.938 495.438C285.985 497.233 285.849 499.025 286.688 500.688C287.103 501.511 287.668 502.226 288.406 502.781C292.393 505.78 297.643 503.157 301.031 500.594C304.791 497.749 307.986 494.208 311.094 490.688C316.115 484.999 320.697 478.955 325.188 472.844C326.442 471.137 327.618 469.358 328.844 467.625C327.927 472.151 327.187 476.716 326.781 481.344C326.523 484.281 326.339 487.236 326.469 490.188C326.54 491.803 326.702 493.434 327.125 495C327.498 496.382 328.079 497.754 328.719 499.031C329.334 500.258 330.168 501.398 331.281 502.219C334.097 504.295 338.274 504.58 341.656 504.625C343.795 504.653 345.821 504.416 347.844 503.688C353.67 501.588 358.064 496.839 362.594 492.844C366.035 489.809 369.56 486.875 373.031 483.875C374.404 482.688 375.833 481.524 377.156 480.281C379.525 478.057 381.572 475.521 383.688 473.062C384.225 472.443 384.182 471.506 383.562 470.969C382.943 470.431 382.006 470.506 381.469 471.125C379.585 473.278 377.737 475.499 375.656 477.469C374.545 478.521 373.309 479.47 372.125 480.438C369.767 482.365 367.38 484.234 364.969 486.094C362.916 487.677 360.833 489.196 358.781 490.781C357.363 491.878 355.941 493.006 354.469 494.031C351.608 496.023 348.386 498.062 344.812 498.312C343.259 498.421 341.637 498.08 340.125 497.75C338.732 497.446 337.154 497.029 336.031 496.094C335.982 496.052 336.211 496.189 336.219 496.125C336.257 495.788 336.026 495.452 335.938 495.125C335.717 494.304 335.488 493.478 335.469 492.625C335.392 489.279 336.114 485.964 336.719 482.688C338.43 473.418 340.726 464.181 344.031 455.344C345.756 450.73 347.844 446.298 349.938 441.844C351.322 438.898 352.691 435.937 354.094 433C354.796 431.529 355.514 430.064 356.219 428.594C357.148 426.656 357.991 424.647 359 422.75C359.967 420.932 361.303 419.048 361.5 416.938C361.53 416.617 361.609 416.271 361.5 415.969C361.075 414.789 360.463 413.701 359.938 412.562C359.798 412.261 359.43 412.126 359.156 411.938C358.654 411.592 358.118 411.319 357.531 411.156C356.902 410.981 356.263 410.941 355.656 411Z" fill="#1f1209" stroke="none"/>
</g>
<g filter="url(#Filter_4)" vectornator:shadowAngle="1.5708" vectornator:shadowColor="#000000" vectornator:shadowOffset="10" vectornator:shadowOpacity="0.333" vectornator:shadowRadius="10">
<path d="M432.406 328.469C431.725 328.55 431.057 328.771 430.438 329.062C425.905 331.192 423.491 337.21 422.125 341.594C421.557 343.416 421.091 345.269 420.531 347.094C418.806 352.72 416.931 358.285 415.188 363.906C408.268 386.212 403.02 408.854 400.031 432.031C399.472 436.37 399.191 440.738 398.781 445.094C398.341 445.586 397.982 446.141 397.531 446.625C393.776 450.66 389.265 453.863 385.094 457.438C389.409 454.003 394.054 450.942 397.969 447.031C398.215 446.786 398.444 446.529 398.688 446.281C398.362 449.857 397.88 453.417 397.656 457C397.398 461.128 397.243 465.246 397 469.375C396.416 479.295 395.586 489.213 396.75 499.125C396.935 500.699 397.18 502.283 397.719 503.781C398.886 507.023 401.572 510.201 404.938 511.281C406.212 511.69 407.489 511.796 408.812 511.594C414.489 510.727 417.828 505.176 419.156 500.094C419.762 497.775 420.052 495.402 420.562 493.062C422.4 484.637 423.508 476.151 423.875 467.531C424.001 464.565 424.112 461.594 424.125 458.625C424.13 457.409 424.005 456.204 423.938 455C424.666 455.319 425.356 455.691 426.125 455.906C428.024 456.438 430.005 456.578 431.969 456.594C435.713 456.624 439.669 457.203 443.344 456.281C446.892 455.392 450.327 453.691 453.5 451.906C461.92 447.17 468.814 440.319 475.188 433.156C475.735 432.546 475.673 431.61 475.062 431.062C474.452 430.515 473.516 430.577 472.969 431.188C468.488 436.154 463.767 440.982 458.25 444.812C454.5 447.416 450.466 449.534 446.125 450.969C444.7 451.44 443.226 451.923 441.719 452.031C439.204 452.211 436.7 451.667 434.219 451.344C431.656 451.01 429.137 450.754 426.844 449.469C424.992 448.431 423.282 446.809 421.812 445.156C421.251 443.573 420.745 441.98 420.094 440.438C418.995 437.836 417.8 435.459 414.625 435.656C414.624 435.656 414.594 435.687 414.594 435.688C414.535 435.666 414.426 435.702 414.344 435.719C414.152 435.757 413.937 435.786 413.75 435.844C412.779 436.141 411.967 436.787 411.406 437.625C411.098 438.086 410.96 438.631 410.781 439.156C410.484 440.033 410.742 441.264 410.938 442.125C411.217 443.353 411.79 444.487 412.438 445.562C412.501 445.791 412.562 446.021 412.625 446.25C413.19 448.303 413.614 450.378 413.812 452.5C414.035 454.878 413.766 457.223 413.562 459.594C413.357 461.989 413.171 464.388 412.938 466.781C412.43 471.976 411.874 477.164 411 482.312C410.528 485.092 409.891 487.811 409.281 490.562C408.89 492.327 408.588 494.132 408.25 495.906C408.141 496.48 407.995 497.033 407.844 497.594C407.716 496.772 407.566 495.945 407.469 495.125C407.063 491.701 406.948 488.227 406.938 484.781C406.922 479.321 407.231 473.864 407.344 468.406C407.455 463.045 407.476 457.701 407.719 452.344C408.002 446.096 408.645 439.879 409.219 433.656C417.436 422.464 423.952 410.015 429.344 397.25C430.636 394.191 431.847 391.109 433.094 388.031C435.155 382.943 437.073 377.795 438.062 372.375C439.111 366.635 439.309 360.782 440.031 355C440.525 351.048 441.114 347.11 441.25 343.125C441.315 341.225 441.333 339.254 441 337.375C440.269 333.243 437.332 327.883 432.406 328.469ZM433.531 333.781C434.259 334.033 434.856 335.079 435.156 335.625C436.4 337.889 436.495 340.505 436.5 343.031C436.51 348.089 435.787 353.115 435.469 358.156C435.09 364.152 434.944 370.152 433.594 376.031C432.633 380.216 431.177 384.22 429.719 388.25C428.442 391.779 427.146 395.316 425.781 398.812C421.399 410.035 416.026 420.958 409.406 431.062C410.54 419.593 412.03 408.171 414.219 396.844C416.445 385.32 419.3 373.939 422.406 362.625C423.68 357.986 425.068 353.396 426.312 348.75C426.92 346.481 427.389 344.189 428.062 341.938C428.767 339.58 429.674 337.272 431.188 335.312C431.614 334.76 432.131 334.183 432.75 333.844C433.016 333.698 433.289 333.697 433.531 333.781Z" fill="#1f1209" stroke="none"/>
</g>
<g filter="url(#Filter_5)" vectornator:shadowAngle="1.5708" vectornator:shadowColor="#000000" vectornator:shadowOffset="10" vectornator:shadowOpacity="0.333" vectornator:shadowRadius="10">
<path d="M688.406 464.5C684.478 464.247 680.134 466.817 677.125 468.875C676.273 469.458 675.459 470.071 674.656 470.719C668.948 475.325 666.076 482.214 662.656 488.5C657.859 497.317 652.437 505.786 647.406 514.469C643.642 520.966 641.01 528.002 637.5 534.625C636.299 536.892 634.911 539.065 633.562 541.25C631.94 542.31 630.33 543.41 628.688 544.438C624.35 547.15 619.942 549.768 615.469 552.25C612.434 553.933 609.348 555.505 606.312 557.188C601.93 559.617 597.638 562.2 593.219 564.562C590.445 566.045 587.62 567.397 584.781 568.75C577.562 572.192 570.43 575.838 563.094 579.031C560.806 580.027 558.49 580.993 556.156 581.875C555.043 582.296 553.914 582.73 552.75 583C549.298 583.801 545.662 583.636 542.156 584.031C545.677 583.696 549.308 583.899 552.781 583.156C554.446 582.8 556.066 582.184 557.656 581.594C560 580.724 562.323 579.787 564.625 578.812C571.536 575.885 578.266 572.58 585.094 569.469C587.968 568.159 590.845 566.847 593.656 565.406C598.12 563.119 602.479 560.605 606.906 558.25C609.97 556.62 613.061 555.1 616.125 553.469C620.665 551.053 625.156 548.525 629.562 545.875C630.236 545.47 630.892 545.035 631.562 544.625C628.751 549.158 625.889 553.658 623.281 558.312C622.257 560.14 621.216 562 620.344 563.906C619.428 565.908 618.709 568.003 617.531 569.875C613.479 576.314 608.435 582.056 604.25 588.406C600.568 593.993 597.508 599.938 593.594 605.375C589.332 611.294 584.142 616.531 579.781 622.375C576.08 627.334 573.267 632.891 569.438 637.75C566.064 642.03 561.954 645.716 558.469 649.906C555.799 653.116 553.466 656.553 551.031 659.938C548.61 658.473 546.046 657.27 543.188 656.719C541.174 656.331 539.135 656.259 537.094 656.406C523.006 657.419 511.67 667.343 501.781 676.5C498.688 679.365 495.264 681.996 492.625 685.312C491.674 686.507 490.822 687.796 490.188 689.188C488.271 693.388 488.647 697.411 490.188 701.625C491.296 704.657 492.881 707.171 495.938 708.531C501.154 710.853 507.908 709.075 512.75 706.562C514.13 705.847 515.423 704.962 516.75 704.156C520.813 701.69 525.118 699.525 528.719 696.375C535.409 690.522 540.648 683.327 546.812 676.969C548.19 675.549 549.431 674.016 550.75 672.562C554.041 675.784 556.854 679.518 560.125 682.75C563.287 685.875 566.752 688.674 570.438 691.156C574.147 693.655 578.116 695.851 582.344 697.344C600.391 703.714 620.098 703.893 638.719 700.125C651.048 697.63 662.981 693.383 674.25 687.812C692.079 678.999 708.095 666.875 721.031 651.75C724.026 648.249 726.933 644.68 729.938 641.188C733.708 636.805 737.346 632.341 739.688 627C741.685 622.444 742.455 617.65 743.062 612.75C743.589 608.504 743.89 604.808 742.375 600.656C741.194 597.419 739.113 594.577 736.594 592.25C734.436 590.257 731.963 588.657 729.375 587.281C728.283 586.701 727.165 586.11 726 585.688C723.852 584.909 721.571 584.472 719.312 584.156C717.254 583.868 715.175 583.631 713.094 583.625C710.626 583.618 708.102 583.988 705.656 584.281C702.793 584.624 699.948 585.044 697.125 585.625C695.897 585.878 694.67 586.072 693.469 586.438C690.752 587.263 688.343 588.854 685.812 590.094C681.413 592.249 677.002 594.36 672.656 596.625C653.185 606.774 631.245 618.574 622.688 640.094C622.383 640.855 622.738 641.696 623.5 642C624.261 642.304 625.133 641.949 625.438 641.188C632.463 623.689 648.645 613.405 664.656 605C668.411 603.029 672.201 601.164 676.031 599.344C679.87 597.52 683.759 595.817 687.656 594.125C689.832 593.18 691.916 591.932 694.188 591.219C695.864 590.692 697.677 590.554 699.406 590.281C702.075 589.86 704.801 589.679 707.5 589.562C709.14 589.492 710.827 589.343 712.469 589.406C714.43 589.482 716.36 589.804 718.281 590.188C720.091 590.549 721.958 590.981 723.656 591.719C725.73 592.62 727.718 594.052 729.469 595.469C732.161 597.647 734.522 600.449 735.281 603.906C735.929 606.856 735.17 609.723 734.625 612.625C734.046 615.707 733.419 618.843 732.125 621.719C729.598 627.331 725.549 631.363 721.438 635.812C718.013 639.519 714.699 643.345 711.219 647C697.858 661.032 681.63 672.139 663.906 679.938C655.073 683.824 645.858 686.901 636.406 688.875C620.206 692.258 603.084 692.499 587.188 687.469C579.619 685.074 572.403 680.147 566.812 674.562C564.632 672.384 562.656 670.013 560.531 667.781C559.467 666.663 558.336 665.585 557.188 664.531C559.092 661.759 560.968 658.963 563 656.281C566.756 651.324 571.362 647.099 575.125 642.156C578.915 637.177 581.719 631.512 585.375 626.438C589.658 620.494 594.721 615.173 598.906 609.156C603.121 603.097 606.347 596.446 610.438 590.312C614.349 584.447 618.864 578.954 622.5 572.906C623.774 570.788 624.549 568.472 625.531 566.219C626.307 564.439 627.269 562.709 628.188 561C630.94 555.88 633.962 550.929 636.938 545.938C638.388 543.504 639.816 541.03 641.156 538.531C651.963 531.332 662.305 523.374 671.938 514.688C675.144 511.796 678.192 508.766 681.219 505.688C683.698 503.166 686.235 500.701 688.375 497.875C692.115 492.936 694.686 487.179 695.594 481.031C696.238 476.669 696.606 471.164 693.812 467.438C693.35 466.821 692.747 466.264 692.125 465.812C690.969 464.974 689.716 464.584 688.406 464.5ZM688.469 468.094C689.41 468.187 690.295 468.585 691.031 469.531C692.42 471.316 692.615 473.652 692.625 475.844C692.637 478.579 692.359 481.276 691.719 483.938C690.477 489.102 687.914 493.844 684.562 497.938C682.897 499.972 681.028 501.814 679.219 503.719C675.582 507.548 671.881 511.325 667.969 514.875C660.073 522.038 651.691 528.63 643 534.812C645.074 530.445 646.9 525.98 649 521.625C650.73 518.038 652.743 514.58 654.719 511.125C657.982 505.419 661.325 499.742 664.469 493.969C665.875 491.385 667.22 488.789 668.531 486.156C670.343 482.519 672.205 478.799 674.938 475.75C676.573 473.925 678.543 472.42 680.594 471.094C682.126 470.103 683.743 469.203 685.469 468.594C686.505 468.228 687.528 468.001 688.469 468.094ZM538.75 666.375C540.007 666.39 541.272 666.557 542.469 666.938C543.219 667.176 543.928 667.537 544.625 667.906C542.366 670.283 539.976 672.528 537.75 674.938C533.014 680.064 528.582 685.493 523.25 690.031C520.712 692.191 517.637 693.747 514.75 695.375C511.181 697.388 507.91 699.731 503.812 700.5C502.537 700.739 501.066 700.917 499.812 700.469C499.634 700.405 499.494 700.321 499.344 700.219C499.306 700.149 499.219 700.032 499.219 700.031C499.107 699.817 498.954 699.404 498.906 699.281C498.721 698.798 498.569 698.304 498.406 697.812C498.086 696.843 497.893 695.838 498 694.812C498.279 692.148 500.657 690.036 502.531 688.375C503.478 687.536 504.451 686.704 505.406 685.875C507.583 683.986 509.696 682.043 511.875 680.156C513.575 678.685 515.284 677.22 517.062 675.844C522.406 671.707 528.311 668.053 535.031 666.75C536.254 666.513 537.493 666.36 538.75 666.375Z" fill="#1f1209" stroke="none"/>
</g>
<g filter="url(#Filter_6)" vectornator:shadowAngle="1.5708" vectornator:shadowColor="#000000" vectornator:shadowOffset="10" vectornator:shadowOpacity="0.333" vectornator:shadowRadius="10">
<path d="M750.562 621.719C749.764 621.538 748.871 621.552 747.969 621.875C746.228 622.498 744.869 623.946 743.562 625.188C742.666 626.039 741.739 626.832 740.906 627.75C739.166 629.668 737.737 631.849 736.406 634.062C734.214 637.708 732.128 641.378 730.562 645.344C728.522 650.514 727.257 655.939 726.125 661.375C724.173 664.147 722.215 666.93 720.156 669.625C718.849 671.335 717.573 673.058 716.094 674.625C712.577 678.352 708.438 681.448 704.438 684.625C708.746 681.79 713.16 679.056 717.031 675.625C719.281 673.631 721.276 671.329 723.281 669.094C723.819 668.494 724.312 667.855 724.844 667.25C724.776 667.584 724.733 667.918 724.656 668.25C724.026 670.985 723.265 673.721 723.438 676.562C723.854 683.428 729.354 689.038 736.281 689.312C740.841 689.493 745.316 687.589 749.188 685.344C751.917 683.761 754.32 681.739 756.562 679.531C758.562 677.563 760.419 675.448 762.5 673.562C765.381 670.952 768.771 668.931 771.531 666.188C773.339 664.391 774.763 662.277 776 660.062C776.406 659.35 776.15 658.469 775.438 658.062C774.725 657.656 773.812 657.881 773.406 658.594C772.281 660.525 771.057 662.345 769.344 663.812C767.791 665.142 765.957 666.119 764.156 667.062C762.113 668.133 760.037 669.134 758 670.219C753.988 672.354 750.074 674.609 745.75 676.062C744.985 676.32 744.216 676.568 743.438 676.781C742.774 676.963 742.104 677.171 741.438 677.344C740.11 677.688 737.447 678.402 736.125 677.719C735.759 677.529 735.525 677.182 735.312 676.844C735.152 676.588 734.94 676.267 734.875 675.969C734.544 674.453 735.062 672.738 735.312 671.25C735.689 669.012 735.904 666.751 736.188 664.5C736.782 659.776 737.557 655.052 738.75 650.438C738.78 650.395 738.814 650.355 738.844 650.312C740.172 648.406 741.205 646.335 742.219 644.25C743.334 641.955 744.439 639.625 745.812 637.469C746.868 635.811 748.244 634.34 749.438 632.781C749.812 632.292 750.355 631.901 750.812 631.5C752.095 630.376 753.367 629.166 753.844 627.469C754.605 624.758 752.958 622.262 750.562 621.719Z" fill="#1f1209" stroke="none"/>
</g>
<g filter="url(#Filter_7)" vectornator:shadowAngle="1.5708" vectornator:shadowColor="#000000" vectornator:shadowOffset="10" vectornator:shadowOpacity="0.333" vectornator:shadowRadius="10">
<path d="M848.406 513.844C847.291 513.918 846.223 514.159 845.281 514.594C843.419 515.454 842.076 517.019 840.688 518.469C839.148 520.077 837.649 521.699 836.219 523.406C833.765 526.336 831.266 529.258 828.969 532.312C825.963 536.31 823.26 540.539 820.938 544.969C819.028 548.611 817.261 552.33 815.469 556.031C812.558 562.043 809.713 568.084 807 574.188C804.438 579.951 801.998 585.794 799.75 591.688C798.725 594.374 797.684 597.071 796.812 599.812C794.858 605.958 794.08 612.396 792.438 618.625C790.502 625.965 788.144 633.194 787 640.719C786.567 643.568 786.273 646.435 786.125 649.312C785.998 651.78 785.994 654.249 786.062 656.719C786.131 659.183 786.275 661.642 786.531 664.094C787.021 668.774 787.887 673.493 790.281 677.625C791.55 679.814 793.418 681.705 795.344 683.312C797.02 684.712 798.855 685.944 800.969 686.562C811.125 689.535 820.089 681.355 825.031 673.375C825.921 671.939 826.714 670.447 827.406 668.906C828.219 667.096 828.91 665.217 829.469 663.312C830.2 660.821 830.699 658.257 831.062 655.688C831.507 652.544 831.703 649.36 831.75 646.188C831.81 642.129 831.595 638.109 831.312 634.062C835.663 635.062 840.321 634.805 844.719 633.969C850.205 632.926 855.493 631.134 860.375 628.406C867.69 624.319 873.738 618.432 879.406 612.344C879.967 611.746 879.942 610.78 879.344 610.219C878.746 609.658 877.811 609.714 877.25 610.312C872.888 614.932 868.323 619.429 862.969 622.906C855.892 627.502 847.434 630.058 838.969 629.812C836.122 629.73 833.292 629.108 830.844 627.75C830.791 627.04 830.73 626.318 830.656 625.656C830.514 624.381 830.272 623.164 830.031 621.906C829.828 620.842 829.76 619.741 829.5 618.688C828.985 616.6 827.773 614.751 825.812 613.875C827.056 611.743 828.192 609.555 829.406 607.406C830.451 605.559 831.613 603.771 832.781 602C836.898 595.76 841.418 589.783 845.125 583.281C849.766 575.14 853.139 566.295 855.844 557.344C858.288 549.255 859.98 540.977 860.094 532.5C860.137 529.252 859.969 525.986 859.406 522.781C859.077 520.905 858.585 519.008 857.406 517.469C855.499 514.978 851.752 513.622 848.406 513.844ZM848.812 519.375C849.29 519.328 849.779 519.356 850.219 519.406C851.212 519.519 852.342 519.832 853.094 520.531C853.93 521.308 854.189 522.712 854.406 523.75C854.774 525.51 855.011 527.302 855.156 529.094C856.099 540.678 853.49 552.196 850.062 563.188C848.065 569.594 845.653 575.896 842.531 581.844C839.083 588.414 834.801 594.519 830.938 600.844C829.807 602.694 828.689 604.544 827.688 606.469C826.488 608.775 825.348 611.127 824.094 613.406C823.835 613.384 823.579 613.329 823.344 613.344C819.125 613.604 817.921 617.756 817.969 621.281C817.971 621.45 818.024 621.613 818.031 621.781C814.538 626.085 810.852 630.244 807.125 634.344C804.619 637.1 802.104 639.841 799.594 642.594C798.703 643.571 797.808 644.558 796.906 645.531C796.991 644.387 796.957 643.233 797.094 642.094C797.482 638.861 798.117 635.672 798.844 632.5C800.042 627.271 801.502 622.111 802.531 616.844C803.473 612.022 803.946 607.083 805.281 602.344C806.847 596.786 808.905 591.338 810.938 585.938C815.301 574.346 820.277 562.989 825.406 551.719C827.41 547.315 829.567 543.043 832.188 538.969C834.482 535.402 837.106 532.108 839.688 528.75C841.365 526.568 843.105 524.429 844.938 522.375C845.733 521.484 846.461 520.45 847.469 519.781C847.852 519.527 848.335 519.422 848.812 519.375ZM825.844 620.062C825.843 620.1 825.763 620.118 825.75 620.156C825.758 620.136 825.773 620.113 825.781 620.094C825.79 620.073 825.845 620.04 825.844 620.062ZM818.281 623.5C818.339 623.768 818.315 624.051 818.406 624.312C818.992 625.995 820.23 627.245 821.469 628.469C821.463 628.678 821.476 628.884 821.469 629.094C821.215 636.862 821.408 644.661 820.281 652.375C819.591 657.1 818.365 661.878 816 666.062C814.138 669.358 811.492 672.792 808.188 674.75C807.127 675.378 805.089 676.075 804.062 675.625C803.063 675.187 802.19 674.364 801.406 673.625C801.001 673.243 800.03 672.239 799.906 672C799.247 670.73 798.658 669.437 798.25 668.062C797.746 666.364 797.545 664.595 797.312 662.844C796.563 657.212 796.506 651.485 796.906 645.812C798.278 644.459 799.623 643.059 800.969 641.688C803.206 639.408 805.458 637.131 807.688 634.844C811.298 631.139 814.854 627.378 818.281 623.5Z" fill="#1f1209" stroke="none"/>
</g>
<g filter="url(#Filter_8)" vectornator:shadowAngle="1.5708" vectornator:shadowColor="#000000" vectornator:shadowOffset="10" vectornator:shadowOpacity="0.333" vectornator:shadowRadius="10">
<path d="M915.094 565.344C912.659 565.449 910.017 567.315 908.469 568.812C908.028 569.239 907.614 569.688 907.219 570.156C906.59 570.902 905.979 571.694 905.312 572.406C904.496 573.278 903.655 574.122 902.812 574.969C901.534 576.253 900.247 577.528 898.969 578.812C897.655 580.132 896.335 581.455 895.094 582.844C893.338 584.807 891.725 586.879 890.25 589.062C886.967 593.923 884.196 599.089 881.719 604.406C879.171 605.298 876.508 605.975 873.875 606.375C871.572 606.725 869.34 606.577 867.156 605.688C866.758 605.525 866.329 605.321 866.062 604.969C865.601 604.359 865.96 603.703 866.656 603.594C866.915 603.553 867.21 603.581 867.469 603.594C868.395 603.64 869.32 603.794 870.25 603.719C869.045 603.73 867.145 602.974 866.062 603.469C865.092 603.912 865.486 605.158 866.125 605.688C867.304 606.663 869.852 607.32 871.375 607.438C873.239 607.582 875.191 607.33 877.031 607.062C878.336 606.873 879.587 606.426 880.875 606.125C878.083 612.361 875.751 618.807 873.844 625.344C869.563 640.018 867.091 655.132 866.094 670.375C865.87 673.795 865.83 677.303 866.438 680.688C866.847 682.971 867.586 685.213 868.875 687.156C869.368 687.899 869.982 688.604 870.656 689.188C875.277 693.182 882.028 691.099 886.312 687.688C888.08 686.28 889.647 684.647 890.969 682.812C893.458 679.356 895.128 675.381 897.281 671.719C897.702 671.015 897.485 670.108 896.781 669.688C896.077 669.267 895.171 669.515 894.75 670.219C891.875 674.951 889.613 680.441 884.844 683.625C883.801 684.321 882.703 684.863 881.5 685.219C880.685 685.46 879.852 685.607 879 685.594C878.13 685.58 877.092 685.455 876.344 684.969C875.611 684.492 875.42 683.55 875.281 682.75C874.978 680.994 875.237 679.055 875.5 677.312C875.942 674.389 876.638 671.503 877.156 668.594C878.903 658.793 879.985 648.88 881.625 639.062C883.224 629.492 885.425 620.033 888.656 610.875C889.95 607.209 891.577 603.667 893.25 600.156C896.004 597.826 898.512 595.135 901.062 592.531C903.78 589.757 906.883 587.401 909.594 584.625C911.599 582.571 913.38 580.281 915.156 578.031C915.625 577.438 916.086 576.861 916.531 576.25C918.496 573.55 921.347 568.312 917.406 565.906C916.692 565.47 915.905 565.309 915.094 565.344ZM913.031 572.719C913.02 572.74 913.012 572.76 913 572.781C911.894 574.798 910.441 576.668 909.094 578.531C907.96 580.1 906.818 581.638 905.5 583.062C903.61 585.106 901.563 586.975 899.719 589.062C899.171 589.682 898.656 590.332 898.125 590.969C898.283 590.725 898.399 590.459 898.562 590.219C900.523 587.345 902.802 584.704 905.094 582.094C907.45 579.409 909.777 576.735 911.875 573.844C912.203 573.392 912.655 573.089 913.031 572.719Z" fill="#1f1209" stroke="none"/>
</g>
<g filter="url(#Filter_9)" vectornator:shadowAngle="1.5708" vectornator:shadowColor="#000000" vectornator:shadowOffset="10" vectornator:shadowOpacity="0.333" vectornator:shadowRadius="10">
<path d="M996.562 585.562C996.183 585.577 995.81 585.731 995.531 586.031C988.097 593.962 980.773 602.115 972.438 609.125C968.529 612.412 964.437 615.541 960.281 618.531C960.526 616.174 960.545 613.805 960.219 611.5C959.858 608.946 959.013 606.392 957.312 604.406C954.104 600.658 949.051 600.337 944.5 599.812C933.121 598.501 924.391 605.809 916.719 613.188C912.922 616.838 909.372 620.8 907.812 625.938C906.227 631.161 906.736 636.905 909.5 641.281C908.433 644.162 907.345 647.029 906.188 649.875C902.339 659.342 897.079 668.335 895.219 678.5C893.802 686.245 894.386 697.056 902.094 701.438C903.045 701.978 904.067 702.377 905.125 702.656C906.282 702.962 907.49 703.123 908.688 703.125C916.278 703.135 921.916 695.96 926.844 691.125C930.878 687.167 934.144 682.642 936.75 677.625C940.665 670.089 943.072 661.911 946.25 654.062C947.148 651.845 948.122 649.643 949.188 647.5C951.665 642.516 954.457 637.696 956.562 632.531C956.829 631.878 957.005 631.194 957.25 630.531C961.963 626.335 966.544 621.986 970.906 617.406C973.858 614.307 976.8 611.191 979.688 608.031C985.737 601.411 991.615 594.662 997.688 588.062C998.246 587.462 998.226 586.527 997.625 585.969C997.325 585.69 996.942 585.548 996.562 585.562ZM943.812 609.656C945.072 609.716 946.327 609.876 947.562 610C948.209 610.065 949.832 610.19 950.281 610.75C950.759 611.346 950.925 612.208 951.062 612.938C951.386 614.651 951.374 616.424 951.25 618.156C951.072 620.65 950.556 623.077 949.906 625.469C946.334 627.706 942.764 629.919 939.156 632.094C938.026 632.775 936.915 633.502 935.75 634.125C934.105 635.005 932.295 635.634 930.5 636.125C929.704 636.343 928.939 636.517 928.125 636.656C925.985 637.023 923.621 637.225 921.5 636.625C920.685 636.394 919.835 636.039 919.312 635.344C918.668 634.486 918.497 633.321 918.438 632.281C918.385 631.369 918.46 630.455 918.656 629.562C918.912 628.397 919.415 627.299 920.031 626.281C921.628 623.646 923.942 621.487 926.094 619.312C929.885 615.48 934.563 610.931 940.062 609.875C941.296 609.638 942.553 609.597 943.812 609.656ZM943.375 641.781C941.657 645.565 940.017 649.363 938.656 653.344C935.803 661.691 933.645 670.28 929.438 678.094C927.348 681.975 924.7 685.139 921.75 688.375C919.463 690.884 917.303 693.537 914.656 695.688C913.234 696.842 911.627 697.914 909.812 698.312C905.762 699.202 902.085 696.922 900.25 693.375C898.214 689.441 897.929 684.706 898.375 680.375C898.513 679.035 898.74 677.728 899 676.406C900.769 667.417 905.05 659.173 908.094 650.594C909.001 648.038 909.828 645.458 910.656 642.875C912.001 644.477 913.7 645.858 915.812 646.812C918.952 648.231 922.497 648.598 925.906 648.375C929.683 648.128 933.444 647.137 936.906 645.625C939.252 644.601 941.338 643.237 943.375 641.781Z" fill="#1f1209" stroke="none"/>
</g>
<g filter="url(#Filter_10)" vectornator:shadowAngle="1.5708" vectornator:shadowColor="#000000" vectornator:shadowOffset="10" vectornator:shadowOpacity="0.333" vectornator:shadowRadius="10">
<path d="M763.906 589.812C762.56 589.583 760.453 591.247 759.562 592.094C756.943 594.583 754.133 598.011 756.688 601.656C757.176 602.354 757.694 602.772 758.406 603.188C759.237 603.672 760.258 603.948 761.219 603.969C763.308 604.015 765.222 603.253 767.031 602.281C769.157 601.14 770.837 599.275 770.469 596.688C770.352 595.864 770.062 595.109 769.75 594.344C769.564 593.887 769.328 593.45 769.219 592.969C769.102 592.454 769.095 591.884 768.812 591.438C768.356 590.715 767.557 590.522 766.781 590.406C766.672 590.39 766.792 590.392 766.219 590.25C765.707 590.015 765.203 590.186 764.781 590.5C764.547 590.189 764.318 589.883 763.906 589.812ZM763.906 591.188C763.929 591.123 764.128 591.236 764.25 591.25C764.144 591.694 764.259 592.087 764.531 592.438C764.192 592.546 763.822 592.621 763.469 592.656C763.442 592.659 763.374 592.655 763.344 592.656C763.51 592.159 763.744 591.64 763.906 591.188ZM765.375 593.156C765.491 593.347 765.818 593.353 765.969 593.531C766.038 593.613 765.744 593.594 765.656 593.531C765.508 593.425 765.455 593.274 765.375 593.156ZM762.875 596.344C763.144 596.823 763.326 597.125 763.312 597.688C763.312 597.691 763.243 598.122 763.062 598.094C762.943 598.075 762.882 597.755 762.875 597.719C762.785 597.274 762.84 596.797 762.875 596.344Z" fill="#1f1209" stroke="none"/>
</g>
<g opacity="1">
<g filter="url(#Filter_11)" vectornator:shadowAngle="1.5708" vectornator:shadowColor="#000000" vectornator:shadowOffset="10" vectornator:shadowOpacity="0.333" vectornator:shadowRadius="10">
<path d="M498.969 482.719C496.436 482.072 495.488 485.097 494.75 486.906C494.515 487.484 494.283 488.057 494.031 488.625C494.022 488.646 494.009 488.666 494 488.688C493.307 489.949 492.569 491.203 491.875 492.469C490.802 494.425 489.842 496.43 488.938 498.469C487.026 502.779 485.454 507.248 483.875 511.688C482.744 514.868 481.685 518.066 480.75 521.312C480.412 520.805 480.045 520.326 479.5 519.969C476.565 518.044 472.014 520.544 469.656 522.312C469.224 522.637 468.768 523.034 468.375 523.406C467.76 523.989 467.26 524.675 466.75 525.344C466.446 525.591 466.162 525.725 465.844 526C464.475 527.185 463.201 528.457 462 529.812C461.244 530.666 460.413 531.69 459.719 532.594C458.62 534.025 457.609 535.488 456.625 537C455.392 538.895 454.257 540.851 453.031 542.75C451.717 544.786 450.361 546.828 449.219 548.969C448.917 549.533 448.261 550.512 448.219 551.156C448.179 551.773 448.63 552.43 448.812 553C448.646 552.433 448.196 551.795 448.25 551.188C448.305 550.561 449.005 549.543 449.312 549C450.336 547.194 451.522 545.497 452.688 543.781C456.472 538.211 459.936 532.414 464.969 527.844C464.66 528.326 464.342 528.803 464.031 529.281C461.756 532.782 459.535 536.271 458.5 540.375C457.67 543.665 457.739 547.05 457.438 550.406C457.267 552.304 457.092 554.289 457.594 556.156C458.504 559.542 462.135 561.957 465.625 561.156C469.263 560.321 470.865 556.524 472.5 553.594C473.517 551.771 474.721 550.07 475.844 548.312C476.353 547.515 476.672 546.636 477.125 545.812C477.18 546.26 477.198 546.714 477.281 547.156C477.502 548.322 477.785 549.714 478.688 550.562C479.706 551.521 481.424 551.688 482.75 551.656C483.988 551.627 485.446 551.504 486.594 551C487.584 550.565 488.333 549.739 489.125 549.031C490.096 548.164 491.027 547.274 491.938 546.344C492.83 545.432 493.708 544.512 494.625 543.625C495.907 542.385 497.224 541.183 498.5 539.938C499.241 539.215 500.021 538.481 500.688 537.688C501.129 537.162 501.506 536.587 501.906 536.031C502.12 535.736 502.045 535.308 501.75 535.094C501.455 534.88 501.058 534.955 500.844 535.25C500.46 535.778 500.109 536.345 499.688 536.844C499.051 537.597 498.272 538.285 497.562 538.969C495.971 540.502 494.312 541.968 492.719 543.5C491.191 544.969 489.693 546.455 488.062 547.812C487.496 548.284 486.922 548.817 486.281 549.188C485.096 549.872 482.765 549.829 481.469 549.531C480.717 549.359 480.169 549.184 479.938 548.406C479.126 545.68 479.857 543.064 480.344 540.375C480.462 539.721 480.657 539.087 480.781 538.438C481.75 536.118 482.678 533.778 483.688 531.469C483.885 531.632 484.077 531.809 484.312 531.875C485.491 532.205 486.053 530.959 485.656 530C485.484 529.583 485.149 529.269 484.844 528.938C487.355 523.42 490.044 517.957 492.125 512.25C492.915 510.082 493.128 507.79 493.688 505.562C494.851 500.927 496.204 496.367 498.031 491.969C499.096 490.083 500.127 488.163 500.719 486.094C500.94 485.32 500.911 484.508 500.469 483.812C500.38 483.672 499.93 483.151 499.844 483.156C499.849 483.149 499.839 483.132 499.844 483.125C499.849 483.118 499.817 483.131 499.812 483.125C499.798 483.106 499.775 483.078 499.75 483.062C499.506 482.907 499.25 482.791 498.969 482.719ZM476.625 521.125C477.915 520.964 478.679 521.455 479.25 522.219C477.772 521.591 476.011 521.649 474.438 521.844C474.709 521.724 474.969 521.566 475.25 521.469C475.696 521.315 476.156 521.184 476.625 521.125ZM476.25 522.75C477.704 522.814 479.005 523.325 480.031 524.375C479.407 526.803 478.755 529.241 478.344 531.719C478.13 533.007 478.017 534.302 477.875 535.594C476.454 539.327 474.991 543.059 472.906 546.5C471.791 548.342 470.569 550.126 469.562 552.031C468.574 553.903 467.406 557.202 465.188 558.031C463.193 558.777 460.95 557.297 460.375 555.375C459.922 553.861 460.086 552.174 460.188 550.625C460.237 549.871 460.255 549.716 460.281 548.969C460.388 545.984 460.365 543 461.156 540.094C462.116 536.572 464.018 533.541 465.906 530.469C467.09 528.543 468.165 526.486 469.781 524.875C470.348 524.31 471.032 523.89 471.688 523.438C473.078 523.036 474.708 522.682 476.25 522.75Z" fill="#1f1209" stroke="none"/>
</g>
<g filter="url(#Filter_12)" vectornator:shadowAngle="1.5708" vectornator:shadowColor="#000000" vectornator:shadowOffset="10" vectornator:shadowOpacity="0.333" vectornator:shadowRadius="10">
<path d="M516.688 509.594C515.906 509.734 515.288 510.215 514.594 510.562C514.093 510.813 513.6 511.01 513.125 511.312C509.79 513.436 507.553 517.399 505.375 520.594C500.252 528.107 496.204 536.293 493.375 544.938C492.986 546.125 492.61 547.312 492.5 548.562C492.211 551.831 493.53 555.128 496.375 556.906C497.178 557.408 498.051 557.774 498.969 558C499.922 558.235 500.927 558.309 501.906 558.25C504.832 558.075 507.451 556.59 509.875 555.062C510.647 554.576 511.405 554.094 512.125 553.531C513.02 552.832 513.838 552.053 514.75 551.375C517.806 549.105 521.011 547.018 524.156 544.875C524.459 544.672 524.547 544.24 524.344 543.938C524.14 543.635 523.709 543.578 523.406 543.781C521.299 545.174 519.21 546.517 516.969 547.688C515.582 548.412 514.156 549.035 512.75 549.719C511.754 550.203 510.781 550.718 509.75 551.125C508.731 551.527 507.662 551.868 506.625 552.219C505.429 552.623 504.223 553.038 502.969 553.219C502.293 553.316 501.552 553.336 500.875 553.219C500.339 553.126 499.823 552.979 499.344 552.719C496.206 551.012 497.829 546.677 498.562 544.156C498.667 543.795 498.766 543.422 498.875 543.062C499.094 542.338 499.327 541.626 499.562 540.906C500.68 537.49 501.982 534.173 503.469 530.938C504.992 530.56 506.537 530.205 507.844 529.344C508.505 528.908 508.998 528.33 509.531 527.75C510.28 526.937 511.023 526.114 511.75 525.281C513.204 523.614 514.621 521.917 516 520.188C516.758 519.237 517.548 518.287 518.188 517.25C518.763 516.318 519.181 515.342 519.688 514.375C520.048 513.687 520.482 512.964 520.469 512.156C520.44 510.363 518.281 509.307 516.688 509.594ZM517.188 511.594C518.488 511.64 518.847 512.007 518.344 513.188C517.868 514.303 517.44 515.456 516.875 516.531C516.335 517.559 515.659 518.484 515 519.438C513.542 521.547 512.035 523.627 510.469 525.656C509.599 526.783 508.771 528.16 507.625 529.031C506.438 529.934 504.963 530.357 503.531 530.812C505.023 527.579 506.708 524.436 508.531 521.344C509.98 518.887 511.296 516.36 513.281 514.281C513.616 513.93 514.035 513.513 514.438 513.219C514.941 512.85 515.509 512.59 516.031 512.25C516.3 512.075 516.802 511.58 517.188 511.594Z" fill="#1f1209" stroke="none"/>
</g>
<g filter="url(#Filter_13)" vectornator:shadowAngle="1.5708" vectornator:shadowColor="#000000" vectornator:shadowOffset="10" vectornator:shadowOpacity="0.333" vectornator:shadowRadius="10">
<path d="M547.344 480.812C546.656 480.856 545.983 481.069 545.344 481.469C542.188 483.445 540.697 486.959 539.125 490.156C537.862 492.726 536.422 495.214 535.094 497.75C533.73 500.354 532.439 502.971 531.312 505.688C529.385 510.335 527.804 515.117 526 519.812C523.903 525.271 521.255 530.938 521.656 536.938C521.998 542.046 524.529 545.164 528.688 547.844C531.125 549.415 532.925 549.791 535.75 549.25C539.872 548.461 543.772 546.708 547.656 545.188C547.997 545.056 548.163 544.653 548.031 544.312C547.9 543.972 547.528 543.806 547.188 543.938C544.234 545.06 541.259 546.283 538.156 546.938C536.494 547.288 534.648 547.634 532.969 547.188C531.457 546.786 530.265 545.471 529.25 544.375C527.432 542.412 526.354 540.434 526.281 537.688C526.247 536.408 526.54 535.141 526.781 533.875C527.89 533.275 528.984 532.604 529.938 531.781C531.209 530.685 532.142 529.196 533.156 527.875C534.975 525.506 536.772 523.101 538.531 520.688C539.94 518.755 541.322 516.807 542.688 514.844C543.354 513.885 544.017 512.954 544.594 511.938C545.954 509.542 546.878 506.949 548.062 504.469C548.609 503.324 549.292 502.252 549.812 501.094C550.305 499.997 550.728 498.821 551.125 497.688C552.463 493.864 553.535 490.65 552.969 486.594C552.847 485.725 552.654 484.812 552.312 484C551.473 482.004 549.406 480.682 547.344 480.812ZM548.375 484.062C549.608 484.544 549.933 485.838 550.156 487.031C550.202 487.277 550.249 487.533 550.281 487.781C550.314 488.034 550.323 488.277 550.344 488.531C550.55 491.03 549.918 493.244 549.25 495.656C548.825 497.189 548.426 498.768 547.844 500.25C547.482 501.17 547.007 502.041 546.594 502.938C545.347 505.644 544.563 508.524 543.219 511.188C542.182 513.241 540.833 515.16 539.594 517.094C537.986 519.602 536.359 522.097 534.688 524.562C533.684 526.043 532.651 527.504 531.625 528.969C531.006 529.852 530.47 530.757 529.688 531.5C528.821 532.323 527.834 533 526.812 533.625C527.26 531.408 527.896 529.233 528.656 527.156C529.925 523.691 531.245 520.267 532.375 516.75C533.22 514.119 534.032 511.486 534.938 508.875C536.04 505.697 537.332 502.611 538.75 499.562C539.971 496.939 541.314 494.372 542.469 491.719C543.583 489.16 544.652 485.671 547.219 484.094C547.591 483.865 547.966 483.903 548.375 484.062Z" fill="#1f1209" stroke="none"/>
</g>
</g>
<g filter="url(#Filter_14)" vectornator:shadowAngle="1.5708" vectornator:shadowColor="#000000" vectornator:shadowOffset="10" vectornator:shadowOpacity="0.333" vectornator:shadowRadius="10">
<path d="M861.75 587.844C861.134 587.87 860.517 588.02 859.875 588.281C855.818 589.929 854.41 595.257 855.688 599.125C856.362 601.167 857.866 602.814 859.469 604.188C860.31 604.908 861.229 605.548 862.031 606.312C863.943 608.134 865.813 609.957 867.969 611.5C870.506 613.316 873.358 614.551 876.375 614.875C876.372 616.024 876.473 617.166 876.469 618.312C876.691 617.215 876.902 616.104 877.125 615C878.252 615.059 879.405 614.989 880.562 614.75C883.238 614.196 885.556 612.735 887.406 610.75C888.831 609.221 889.998 607.489 891.625 606.156C893.448 604.662 896.019 604.171 898.219 603.562C899.013 603.36 899.484 602.544 899.281 601.75C899.078 600.955 898.263 600.485 897.469 600.688C895.406 601.17 893.337 601.421 891.25 601.75C888.522 602.18 885.834 602.818 883.125 603.344C881.359 603.686 879.829 603.768 878.312 603.562C878.053 598.738 876.361 594.415 872.156 591.625C870.568 590.571 868.868 590.028 867.125 589.312C865.363 588.589 863.598 587.764 861.75 587.844ZM863.219 594.812C863.398 594.841 863.57 594.868 863.75 594.906C864.509 595.067 865.263 595.26 866.031 595.375C868.094 595.685 870.094 596.133 871.781 597.438C873.452 598.729 874.427 600.557 875.094 602.531C874.654 602.354 874.241 602.353 873.781 602.125C871.952 601.219 870.279 600.051 868.594 598.906C867.407 598.1 866.129 597.44 864.875 596.75C864.452 596.518 863.902 596.159 863.594 596.062C863.175 595.932 863.296 595.073 863.219 594.812Z" fill="#1f1209" stroke="none"/>
</g>
<g filter="url(#Filter_15)" vectornator:shadowAngle="1.5708" vectornator:shadowColor="#000000" vectornator:shadowOffset="10" vectornator:shadowOpacity="0.333" vectornator:shadowRadius="10">
<path d="M892.031 605.375C889.802 608.581 887.882 611.939 886.344 615.531C882.899 623.579 881.173 632.212 879 640.656C878.217 643.698 877.119 646.67 876.375 649.719C875.306 654.099 875.021 658.686 875.562 663.156C875.747 664.682 875.986 666.224 876.344 667.719C876.616 668.858 876.975 669.973 877.406 671.062C877.864 672.222 878.387 673.339 879.031 674.406C879.39 675.001 879.837 675.527 880.188 676.125C881.66 678.641 882.964 682.037 886.531 681.625C886.91 681.581 887.238 681.509 887.594 681.375C889.956 680.482 890.605 678.022 891.656 676C892.064 675.216 892.533 674.444 892.938 673.656C894.601 670.411 896.066 667.065 897.719 663.812C901.592 656.19 905.678 648.664 909.281 640.906C911.508 636.113 913.357 631.133 915.594 626.344C916.883 623.584 918.358 620.951 919.875 618.312C918.353 620.948 916.857 623.586 915.562 626.344C913.316 631.127 911.443 636.079 909.156 640.844C906.172 647.06 902.591 652.922 899.188 658.906C896.746 663.198 894.41 667.582 891.469 671.562C890.757 672.525 889.944 673.325 889.156 674.219C888.615 674.833 888.093 675.498 887.531 676.094C887.361 676.274 887.163 676.434 886.969 676.594C886.936 676.384 886.878 676.082 886.875 676.062C886.852 675.918 886.835 675.769 886.812 675.625C886.597 674.211 886.232 672.89 885.906 671.5C885.221 668.576 885.249 665.576 885.281 662.594C885.295 661.305 885.319 660.004 885.438 658.719C885.655 656.358 886.152 654.059 886.5 651.719C887.063 647.925 887.35 644.08 887.5 640.25C887.814 632.256 887.581 624.229 888.938 616.312C889.582 612.552 890.642 608.925 892.031 605.375ZM886.688 676.688C886.728 676.691 886.768 676.69 886.812 676.719C886.764 676.753 886.738 676.814 886.688 676.844C886.64 676.872 886.313 677.049 886.281 676.906C886.237 676.704 886.58 676.68 886.688 676.688Z" fill="#1f1209" stroke="none"/>
</g>
<g filter="url(#Filter_16)" vectornator:shadowAngle="1.5708" vectornator:shadowColor="#000000" vectornator:shadowOffset="10" vectornator:shadowOpacity="0.333" vectornator:shadowRadius="10">
<path d="M933.062 603.594C931.264 603.77 929.559 604.358 927.938 605.125C926.504 605.363 925.067 605.667 923.688 606.156C922.235 606.672 920.848 607.335 919.562 608.188C912.565 612.827 910.438 621.738 908.219 629.281C905.352 639.027 902.944 648.909 902.812 659.125C902.793 660.674 902.808 662.234 902.875 663.781C903.201 671.283 904.838 680.582 912.906 683.406C913.99 683.786 915.192 684.061 916.344 684.094C918.078 684.143 919.817 683.663 921.469 683.188C923.726 682.537 925.936 681.724 928.125 680.875C931.336 679.63 934.776 678.638 937.625 676.656C941.617 673.879 944.652 669.498 947.25 665.469C951.873 658.299 955.923 649.82 957 641.219C957.842 640.854 958.7 640.536 959.531 640.156C963.268 638.446 966.977 636.62 970.5 634.5C971.205 634.082 971.418 633.174 971 632.469C970.582 631.763 969.674 631.519 968.969 631.938C965.32 634.07 961.379 635.993 957.281 637.469C957.253 635.781 957.088 634.083 956.562 632.5C956.058 630.98 955.26 629.619 954.625 628.156C954.163 627.093 953.86 625.953 953.531 624.844C951.275 617.239 948.852 608.593 941 604.969C939.966 604.492 938.891 604.128 937.781 603.875C936.173 603.508 934.595 603.444 933.062 603.594ZM927.438 605.406C919.674 609.399 914.497 619.307 916.469 627.812C917.408 631.865 920.486 635.245 923.375 638.062C924.33 638.994 925.343 639.866 926.312 640.781C928.202 642.564 929.972 644.335 932.438 645.312C936.909 647.086 942.002 646.26 946.5 645.062C946.69 645.012 946.872 644.928 947.062 644.875C946.377 647.947 945.34 650.945 944.125 653.844C942.455 657.829 940.422 661.663 938.062 665.281C936.748 667.297 935.301 669.397 933.406 670.906C931.451 672.464 928.97 673.277 926.719 674.312C924.38 675.389 922.02 676.477 919.594 677.344C917.829 677.974 916.53 678.473 914.688 677.969C911.84 677.189 910.105 674.632 909.094 672C908.046 669.275 907.621 666.326 907.312 663.438C907.023 660.724 906.865 658.01 906.875 655.281C906.904 646.658 908.504 638.223 910.406 629.844C912.082 622.46 913.546 613.702 920 608.812C921.19 607.911 922.504 607.18 923.875 606.594C925.036 606.098 926.222 605.71 927.438 605.406ZM935.094 614.969C937.567 615.266 939.214 617.286 940.312 619.375C942.3 623.157 943.269 627.318 944.969 631.219C945.797 633.119 947.334 634.949 947.656 637.031C947.799 637.951 947.751 638.879 947.719 639.812C947.007 639.917 946.307 640.122 945.594 640.188C942.56 640.466 938.237 640.468 935.656 638.562C934.763 637.903 934.229 636.873 933.625 635.969C933.028 635.075 932.365 634.232 931.719 633.375C930.916 632.31 930.146 631.203 929.406 630.094C929.045 629.552 928.669 628.94 928.344 628.375C927.881 627.572 927.336 626.672 927.125 625.75C926.88 624.68 927.361 622.818 927.812 621.656C928.087 620.951 928.4 620.248 928.781 619.594C929.964 617.565 932.395 614.644 935.094 614.969Z" fill="#1f1209" stroke="none"/>
</g>
</g>
</svg>
